HIERARCHY
ROOT Hips
{
	OFFSET 0.00000 0.00000 0.00000
	CHANNELS 6 Xposition Yposition Zposition Zrotation Yrotation Xrotation 
	JOINT LHipJoint
	{
		OFFSET 0 0 0
		CHANNELS 3 Zrotation Yrotation Xrotation
		JOINT LeftHip
		{
			OFFSET 1.56741 -1.82513 0.67319
			CHANNELS 3 Zrotation Yrotation Xrotation
			JOINT LeftKnee
			{
				OFFSET 2.35708 -6.47604 0.00000
				CHANNELS 3 Zrotation Yrotation Xrotation
				JOINT LeftAnkle
				{
					OFFSET 2.70636 -7.43567 0.00000
					CHANNELS 3 Zrotation Yrotation Xrotation
					JOINT LeftToe
					{
						OFFSET 0.20427 -0.56122 2.08535
						CHANNELS 3 Zrotation Yrotation Xrotation
						End Site
						{
							OFFSET 0.00000 -0.00000 1.08535
						}
					}
				}
			}
		}
	}
	JOINT RHipJoint
	{
		OFFSET 0 0 0
		CHANNELS 3 Zrotation Yrotation Xrotation
		JOINT RightHip
		{
			OFFSET -1.51422 -1.82513 0.67319
			CHANNELS 3 Zrotation Yrotation Xrotation
			JOINT RightKnee
			{
				OFFSET -2.48824 -6.83638 0.00000
				CHANNELS 3 Zrotation Yrotation Xrotation
				JOINT RightAnkle
				{
					OFFSET -2.70033 -7.41909 0.00000
					CHANNELS 3 Zrotation Yrotation Xrotation
					JOINT RightToe
					{
						OFFSET -0.19750 -0.54263 2.22151
						CHANNELS 3 Zrotation Yrotation Xrotation
						End Site
						{
							OFFSET -0.00000 -0.00000 1.14915
						}
					}
				}
			}
		}
	}
	JOINT lowerback
	{
		OFFSET 0 0 0
		CHANNELS 3 Zrotation Yrotation Xrotation
		JOINT Chest
		{
			OFFSET -0.01567 2.12874 -0.15842
			CHANNELS 3 Zrotation Yrotation Xrotation
			JOINT Chest2
			{
				OFFSET 0.06098 2.13326 -0.01043
				CHANNELS 3 Zrotation Yrotation Xrotation
				JOINT lowerneck
				{
					OFFSET 0 0 0
					CHANNELS 3 Zrotation Yrotation Xrotation
					JOINT Neck
					{
						OFFSET -0.05040 1.78432 0.13387
						CHANNELS 3 Zrotation Yrotation Xrotation
						JOINT Head
						{
							OFFSET -0.00180 1.76880 -0.33303
							CHANNELS 3 Zrotation Yrotation Xrotation
							End Site
							{
								OFFSET 0.00734 1.81249 -0.12719
							}
						}
					}
				}
				JOINT LeftCollar
				{
					OFFSET 0 0 0
					CHANNELS 3 Zrotation Yrotation Xrotation
					JOINT LeftShoulder
					{
						OFFSET 3.72199 0.94188 -0.54317
CHANNELS 3 Zrotation Xrotation Yrotation
						JOINT LeftElbow
						{
OFFSET 0 -5.146010 0.000000
CHANNELS 3 Zrotation Xrotation Yrotation
							JOINT LeftWrist
							{
OFFSET 0 -3.644520 -0.000000
CHANNELS 3 Zrotation Xrotation Yrotation
								JOINT lhand
								{
									OFFSET 0 0 0
CHANNELS 3 Zrotation Xrotation Yrotation
									JOINT LFingers
									{
OFFSET 0 -0.562280 0.000000
CHANNELS 3 Zrotation Xrotation Yrotation
										End Site
										{
OFFSET 0 -0.453320 0.000000
										}
									}
								}
								JOINT LThumb
								{
OFFSET 0 0.000000 0.000000
CHANNELS 3 Zrotation Xrotation Yrotation
									End Site
									{
OFFSET 0 -0.460250 0.460250
									}
								}
							}
						}
					}
				}
				JOINT RightCollar
				{
					OFFSET 0 0 0
					CHANNELS 3 Zrotation Yrotation Xrotation
					JOINT RightShoulder
					{
						OFFSET -3.30253 1.22679 -0.46941
CHANNELS 3 Zrotation Xrotation Yrotation
						JOINT RightElbow
						{
OFFSET 0 -5.339130 0.000000
CHANNELS 3 Zrotation Xrotation Yrotation
							JOINT RightWrist
							{
OFFSET 0 -3.564780 -0.000000
CHANNELS 3 Zrotation Xrotation Yrotation
								JOINT rhand
								{
									OFFSET 0 0 0
CHANNELS 3 Zrotation Xrotation Yrotation
									JOINT RFingers
									{
OFFSET 0 -0.857470 0.000000
CHANNELS 3 Zrotation Xrotation Yrotation
										End Site
										{
OFFSET 0 -0.691320 0.000000
										}
									}
								}
								JOINT RThumb
								{
OFFSET 0 0.000000 0.000000
CHANNELS 3 Zrotation Xrotation Yrotation
									End Site
									{
OFFSET 0 -0.701870 0.701870
									}
								}
							}
						}
					}
				}
			}
		}
	}
}
MOTION
Frames: 4
Frame Time: 0.008333333333333333
-6.181952 17.391513 -3.306459 -177.707232 -185.022306 184.458621 0.000000 0.000000 0.000000 -22.915739 -8.577198 -33.163229 2.670180 10.137711 29.426886 0.190809 3.298578 -10.151150 1.157937 -6.831322 -19.216808 0.000000 0.000000 0.000000 26.168278 11.009600 -6.455598 -3.752853 -11.824081 35.112402 -1.447185 -2.863577 -23.914840 -0.668274 -5.226706 14.556548 1.621802 1.968079 8.306900 3.830922 2.828563 3.053972 2.776262 1.405217 -1.608237 -2.161951 10.051834 -8.248968 1.280062 14.511488 29.124677 2.409721 6.639575 10.412910 0.000000 0.000000 0.000000 -0.737162 -0.535086 -34.189344 17.513223 -27.524080 4.324745 13.146486 12.717753 -29.812607 0.000000 0.000000 0.000000 -7.125000 0.000000 0.000000 -20.486534 59.265025 7.328492 0.000000 0.000000 0.000000 -6.986696 -2.507573 12.196004 -20.078427 -30.736583 -5.571416 -16.180079 12.734826 -2.395359 0.000000 0.000000 0.000000 7.125000 0.000000 0.000000 7.986056 27.459535 3.434723
-6.285462 17.449471 -4.203985 -176.975157 -191.093826 183.148060 0.000000 0.000000 0.000000 -18.964550 -12.402305 -27.648782 5.689340 14.120312 43.721648 0.450968 0.868718 -13.029592 1.108849 -6.690277 -18.800913 0.000000 0.000000 0.000000 25.596682 10.001213 -9.864406 -4.233446 -12.464747 37.396491 -1.162147 -6.298714 -23.546869 -0.950463 -6.208723 17.391266 1.214892 2.311463 8.494629 3.039012 3.217451 4.002290 2.163332 1.603373 -0.723148 -2.140656 9.424552 -6.986883 0.565398 13.669170 26.898607 1.904972 6.285571 9.439852 0.000000 0.000000 0.000000 -0.953288 -0.724526 -19.323001 9.243969 -15.548344 1.264779 12.036191 23.532741 -32.358381 0.000000 0.000000 0.000000 -7.125000 0.000000 0.000000 -23.734456 61.339012 9.750393 0.000000 0.000000 0.000000 -4.362511 0.102347 9.359592 -17.947896 -28.090168 -4.524704 -17.410716 13.650054 -4.246316 0.000000 0.000000 0.000000 7.125000 0.000000 0.000000 6.952668 25.524575 3.300950
-6.402351 17.237119 -5.105665 -177.528993 -195.388564 181.955528 0.000000 0.000000 0.000000 -14.152216 -13.237573 -20.458884 7.984145 16.107530 52.505553 0.524584 2.590724 -14.871165 1.024903 -6.439577 -18.065514 0.000000 0.000000 0.000000 25.640626 9.672885 -15.663788 -5.568184 -13.996161 43.222618 -0.987389 -8.918574 -24.001899 -0.788892 -5.669866 15.829443 0.778671 2.883246 8.440497 3.177598 3.920863 5.258035 2.533131 1.949299 0.548673 -3.090288 9.493897 -7.294651 0.409417 14.086564 27.552989 2.085425 6.360711 9.672428 0.000000 0.000000 0.000000 0.330734 0.204825 -11.191118 7.857937 -13.322190 0.919279 12.120829 26.305638 -34.612017 0.000000 0.000000 0.000000 -7.125000 0.000000 0.000000 -25.828657 63.371171 11.914204 0.000000 0.000000 0.000000 -4.449953 -0.881253 8.601950 -14.604931 -23.592263 -3.066372 -13.862686 19.783736 -3.482997 0.000000 0.000000 0.000000 7.125000 0.000000 0.000000 9.668536 26.367943 4.427719
-6.497735 17.233891 -5.805764 -176.399723 -201.278224 181.719933 0.000000 0.000000 0.000000 -12.392189 -13.165490 -9.689386 7.449380 15.698656 50.553735 0.295672 3.763051 -12.360408 1.202676 -6.956906 -19.588116 0.000000 0.000000 0.000000 23.553606 7.116317 -19.832288 -6.045266 -14.472048 45.163066 -0.638838 -10.980392 -22.804883 -0.870832 -5.949147 16.637204 -0.968083 3.045733 8.301838 2.378629 4.024798 5.254501 2.681681 1.978271 0.555803 -2.902209 8.997137 -7.113189 0.703152 13.391655 28.241727 2.111576 6.086633 9.888248 0.000000 0.000000 0.000000 0.307000 0.258439 1.289076 8.047982 -13.630165 0.963878 13.765293 31.551260 -27.481209 0.000000 0.000000 0.000000 -7.125000 0.000000 0.000000 -18.250430 57.204561 5.584127 0.000000 0.000000 0.000000 -3.928002 -1.325122 6.179535 -12.012114 -19.822822 -2.106444 -12.525379 26.078943 -0.214730 0.000000 0.000000 0.000000 7.125000 0.000000 0.000000 10.992641 29.668936 4.179073
